<svg xmlns="http://www.w3.org/2000/svg" width="125.4" height="247.8" viewBox="0 0 125.4 247.8"><path fill="#b4fff4" d="M114.3 183.5L96 153.4c3.4-11.7 6.1-24.7 6.1-37.5 0-1.7-.1-3.4-.2-5-1.8-33.7-14.9-45.8-24.6-55.5-4.6-4.6-10.7-14.3-10.7-14.4a11 11 0 0 0 4.1-1.4 5.7 5.7 0 0 0 2.7-5.1l-.5-1.2q-1.2-1.2-6.9-1.5a20.4 20.4 0 0 1 .1-6.5c.1-1.1 2.1-1.4 2.1-1.4a2.3 2.3 0 0 0 2-1.2c.6-1.3-1.1-4.6-1.1-4.6-2.6-6.4-4-11-4-13.5s-.8-4-1.3-4.4a1.7 1.7 0 0 0-1.7 0c-.3.2-1.4.8-1.4 4.4 0 1.7-.7 5.4-4 13.6a12 12 0 0 0-1.3 3.4 2.3 2.3 0 0 0 .3 1.1 2.2 2.2 0 0 0 2 1.2s1.9.3 2.1 1.4a48.4 48.4 0 0 1 .1 6.5q-5.7.3-6.9 1.5l-.6 1.2a5.7 5.7 0 0 0 2.8 5.1 10.4 10.4 0 0 0 4.1 1.4c-.1.1-6.6 10-11.3 14.6-9.7 9.7-22.7 21.8-24.5 55.3-.1 1.6-.2 3.3-.2 5 0 12.8 2.7 25.8 6.1 37.5l-18.3 30.1L0 247.8h12.5L24.2 207l19.6-16.4 2.9.9c.3 2.1.7 4.2 1 5.5s.6 3.5 9.8 4.2v46.6h10.3v-46.6c9.7-.6 10.2-3.1 10.4-4.1s.6-3.5.9-5.6l2.6-.8 19.5 16.3 11.7 40.8h12.5z"/></svg>